<svg width="111" height="111" viewBox="0 0 111 111" fill="none" xmlns="http://www.w3.org/2000/svg">
<path fill-rule="evenodd" clip-rule="evenodd" d="M55.2124 23.4224C43.0385 23.5174 33.1384 33.4131 33.1342 45.6079L53.2353 44.5418C53.7467 44.5147 54.1549 44.1057 54.181 43.5943L55.2124 23.4224ZM33.1375 46.0015C33.3435 58.0158 43.154 67.7047 55.1931 67.809L54.181 48.015C54.1549 47.5036 53.7467 47.0946 53.2353 47.0675L33.1375 46.0015ZM55.6505 67.8083C67.6588 67.6698 77.4337 57.996 77.6412 46.005L57.6083 47.0675C57.097 47.0946 56.6887 47.5036 56.6626 48.015L55.6505 67.8083ZM77.6445 45.6045C77.6384 33.4329 67.7743 23.5526 55.6312 23.423L56.6626 43.5943C56.6887 44.1057 57.097 44.5147 57.6083 44.5418L77.6445 45.6045Z" fill="#F49731"/>
<path d="M46.9034 68.6639C54.2775 75.6641 54.3101 81.7764 55.1924 86.871C50.1406 86.3323 44.1517 86.7284 36.7776 79.7282C29.4036 72.728 29.371 66.6157 28.4886 61.5211C33.5405 62.0598 39.5294 61.6637 46.9034 68.6639Z" fill="#F49731"/>
<path d="M64.7742 68.6639C57.4002 75.6641 57.3676 81.7764 56.4853 86.871C61.5371 86.3323 67.526 86.7284 74.9001 79.7282C82.2741 72.728 82.3067 66.6157 83.1891 61.5211C78.1372 62.0598 72.1483 61.6637 64.7742 68.6639Z" fill="#F49731"/>
<circle cx="55.5" cy="55.5" r="54.25" stroke="#F49731" stroke-width="2.5"/>
</svg>
