<svg width="15" height="14" viewBox="0 0 15 14" fill="none" xmlns="http://www.w3.org/2000/svg">
<path d="M8.90597 3.32762C8.96879 5.145 8.15189 6.02978 7.55289 6.86097C6.90334 6.22964 5.9366 5.63037 5.87378 3.81299C5.81096 1.99561 6.67713 1.11083 7.27613 0.27964C7.92568 0.910969 8.84315 1.51023 8.90597 3.32762Z" fill="#F49731"/>
<path d="M11.3079 5.12616C9.25037 5.32719 8.37483 6.20483 7.52211 6.84261C8.32517 7.31861 9.12977 8.03208 11.1873 7.83104C13.2448 7.63001 14.1204 6.75237 14.9731 6.11459C14.17 5.63859 13.3654 4.92512 11.3079 5.12616Z" fill="#F49731"/>
<path d="M3.76413 8.43355C5.76972 8.32174 6.66302 7.45933 7.52211 6.84261C6.76724 6.31587 6.02282 5.54477 4.01723 5.65658C2.01165 5.76839 1.11835 6.63079 0.259257 7.24751C1.01413 7.77425 1.75855 8.54536 3.76413 8.43355Z" fill="#F49731"/>
<path d="M6.015 10.431C6.04555 8.55854 6.93013 7.68836 7.55289 6.86097C8.15107 7.54041 9.0107 8.19924 8.98015 10.0717C8.94961 11.9442 8.06503 12.8143 7.44227 13.6417C6.84409 12.9623 5.98445 12.3035 6.015 10.431Z" fill="#F49731"/>
</svg>
